<?xml version="1.0" encoding="UTF-8" standalone="no"?>
<!-- Created with Inkscape (http://www.inkscape.org/) -->

<svg
   xmlns:dc="http://purl.org/dc/elements/1.1/"
   xmlns:cc="http://creativecommons.org/ns#"
   xmlns:rdf="http://www.w3.org/1999/02/22-rdf-syntax-ns#"
   xmlns:svg="http://www.w3.org/2000/svg"
   xmlns="http://www.w3.org/2000/svg"
   xmlns:sodipodi="http://sodipodi.sourceforge.net/DTD/sodipodi-0.dtd"
   xmlns:inkscape="http://www.inkscape.org/namespaces/inkscape"
   width="210mm"
   height="297mm"
   id="svg2"
   version="1.1"
   inkscape:version="0.48.4 r9939"
   sodipodi:docname="nexus-icons.svg">
  <defs
     id="defs4" />
  <sodipodi:namedview
     id="base"
     pagecolor="#ffffff"
     bordercolor="#666666"
     borderopacity="1.0"
     inkscape:pageopacity="0.0"
     inkscape:pageshadow="2"
     inkscape:zoom="0.49497475"
     inkscape:cx="-1154.4507"
     inkscape:cy="1148.9137"
     inkscape:document-units="px"
     inkscape:current-layer="layer1"
     showgrid="false"
     inkscape:window-width="3074"
     inkscape:window-height="1752"
     inkscape:window-x="126"
     inkscape:window-y="48"
     inkscape:window-maximized="1" />
  <metadata
     id="metadata7">
    <rdf:RDF>
      <cc:Work
         rdf:about="">
        <dc:format>image/svg+xml</dc:format>
        <dc:type
           rdf:resource="http://purl.org/dc/dcmitype/StillImage" />
        <dc:title></dc:title>
      </cc:Work>
    </rdf:RDF>
  </metadata>
  <g
     inkscape:label="Calque 1"
     inkscape:groupmode="layer"
     id="layer1">
    <rect
       style="color:#000000;fill:#000000;fill-opacity:1;fill-rule:nonzero;stroke:none;stroke-width:1.39999998000000003;marker:none;visibility:visible;display:inline;overflow:visible;enable-background:accumulate"
       id="rect3897"
       width="350"
       height="350"
       x="-646.92102"
       y="298.48117"
       rx="18.495945"
       inkscape:export-filename="/home/thibault/Documents/Informatique/github/nexus/nexus-app/ui/img/nexus-ubuntu.png"
       inkscape:export-xdpi="60"
       inkscape:export-ydpi="60" />
    <path
       style="color:#000000;fill:#dcd8d0;fill-opacity:1;fill-rule:nonzero;stroke:none;stroke-width:1.39999998;marker:none;visibility:visible;display:inline;overflow:visible;enable-background:accumulate"
       d="m -591.26472,323.48117 c -16.9753,0 -30.6563,13.68097 -30.6563,30.65625 l 0,238.6875 c 0,16.97528 13.681,30.65625 30.6563,30.65625 l 238.7187,0 c 16.9753,0 30.625,-13.68097 30.625,-30.65625 l 0,-238.6875 c 0,-16.97528 -13.6497,-30.65625 -30.625,-30.65625 l -238.7187,0 z m 34.0312,48.78125 19.7188,0 c 1.5866,2e-4 2.9424,0.0948 4.0625,0.28125 1.2133,0.0935 2.2537,0.37729 3.0937,0.84375 0.9333,0.37353 1.8162,0.9727 2.6563,1.8125 0.8399,0.74687 1.7857,1.78728 2.8125,3.09375 l 106.0937,135.5 c -0.2801,-3.2666 -0.501,-6.48285 -0.6875,-9.65625 -0.1868,-3.17326 -0.2814,-6.10576 -0.2812,-8.8125 l 0,-123.0625 33.1875,0 0,202.4375 -19.3125,0 c -2.9869,0 -5.5094,-0.47292 -7.5625,-1.40625 -1.9602,-1.02666 -3.8835,-2.69791 -5.75,-5.03125 l -105.6875,-134.96875 c 0.5599,6.16014 0.8124,11.86721 0.8125,17.09375 l 0,124.3125 -33.1563,0 0,-202.4375 z"
       id="rect2985"
       inkscape:export-filename="/home/thibault/Documents/Informatique/github/nexus/nexus-app/ui/img/nexus-ubuntu.png"
       inkscape:export-xdpi="60"
       inkscape:export-ydpi="60"
       inkscape:connector-curvature="0" />
    <rect
       style="color:#000000;fill:#dcd8d0;fill-opacity:1;fill-rule:nonzero;stroke:none;stroke-width:1.39999998;marker:none;visibility:visible;display:inline;overflow:visible;enable-background:accumulate"
       id="rect2985-3"
       width="300"
       height="300"
       x="505"
       y="316.64792"
       rx="30.641304" />
    <flowRoot
       xml:space="preserve"
       id="flowRoot2987-9"
       style="font-size:40px;font-style:normal;font-weight:bold;line-height:125%;letter-spacing:0px;word-spacing:0px;fill:#000000;fill-opacity:1;stroke:none;font-family:Sans;-inkscape-font-specification:Sans Bold"
       transform="translate(358.5675,-80.22585)"><flowRegion
         id="flowRegion2989-0"><rect
           id="rect2991-0"
           width="312.85712"
           height="326.42859"
           x="188.57143"
           y="360.21933"
           style="font-weight:bold;-inkscape-font-specification:Sans Bold" /></flowRegion><flowPara
         id="flowPara2993-2"
         style="font-size:280px;font-style:normal;font-variant:normal;font-weight:bold;font-stretch:normal;font-family:Lato;-inkscape-font-specification:Lato Bold">N</flowPara></flowRoot>    <path
       inkscape:connector-curvature="0"
       style="color:#000000;fill:#8effff;fill-opacity:1;fill-rule:nonzero;stroke:none;stroke-width:1.39999998000000003;marker:none;visibility:visible;display:inline;overflow:visible;enable-background:accumulate"
       d="m 152.08482,651.6479 c -16.97528,0 -30.65625,13.68097 -30.65625,30.65625 l 0,238.68752 c 0,16.9753 13.68097,30.6562 30.65625,30.6562 l 238.71875,0 c 16.97528,0 30.625,-13.6809 30.625,-30.6562 l 0,-238.68752 c 0,-16.97528 -13.64972,-30.65625 -30.625,-30.65625 l -238.71875,0 z m 34.03125,48.78125 19.71875,0 c 1.58662,2e-4 2.94245,0.0948 4.0625,0.28125 1.21329,0.0935 2.2537,0.37729 3.09375,0.84375 0.93328,0.37353 1.8162,0.9727 2.65625,1.8125 0.83995,0.74687 1.78578,1.78728 2.8125,3.09375 l 106.09375,135.5 c -0.28016,-3.2666 -0.50099,-6.48285 -0.6875,-9.65625 -0.18683,-3.17326 -0.28141,-6.10576 -0.28125,-8.8125 l 0,-123.0625 33.1875,0 0,202.43752 -19.3125,0 c -2.98684,0 -5.50934,-0.4729 -7.5625,-1.4063 -1.96016,-1.0266 -3.8835,-2.6979 -5.75,-5.0312 L 218.45982,761.4604 c 0.55994,6.16014 0.81244,11.86721 0.8125,17.09375 l 0,124.31252 -33.15625,0 0,-202.43752 z"
       id="rect2985-7"
       inkscape:export-filename="/home/thibault/Documents/Informatique/github/nexus/nexus-app/ui/img/nexus-white.png"
       inkscape:export-xdpi="60"
       inkscape:export-ydpi="60" />
    <path
       inkscape:connector-curvature="0"
       style="color:#000000;fill:#000000;fill-opacity:1;fill-rule:nonzero;stroke:none;stroke-width:1.39999998000000003;marker:none;visibility:visible;display:inline;overflow:visible;enable-background:accumulate"
       d="m 159.22768,-20.494961 c -16.97528,0 -30.65625,13.6809702 -30.65625,30.65625 l 0,238.687491 c 0,16.97528 13.68097,30.65625 30.65625,30.65625 l 238.71875,0 c 16.97528,0 30.625,-13.68097 30.625,-30.65625 l 0,-238.687491 c 0,-16.9752798 -13.64972,-30.65625 -30.625,-30.65625 l -238.71875,0 z m 34.03125,48.78125 19.71875,0 c 1.58662,2e-4 2.94245,0.0948 4.0625,0.28125 1.21329,0.0935 2.2537,0.37729 3.09375,0.84375 0.93328,0.37353 1.8162,0.9727 2.65625,1.8125 0.83995,0.74687 1.78578,1.78728 2.8125,3.093745 L 331.69643,169.81753 c -0.28016,-3.2666 -0.50099,-6.48285 -0.6875,-9.65625 -0.18683,-3.17326 -0.28141,-6.10576 -0.28125,-8.8125 l 0,-123.062491 33.1875,0 0,202.437491 -19.3125,0 c -2.98684,0 -5.50934,-0.47292 -7.5625,-1.40625 -1.96016,-1.02666 -3.8835,-2.69791 -5.75,-5.03125 L 225.60268,89.317534 c 0.55994,6.16014 0.81244,11.867206 0.8125,17.093746 l 0,124.3125 -33.15625,0 0,-202.437491 z"
       id="rect2985-0"
       inkscape:export-filename="/home/thibault/Documents/Informatique/github/nexus/nexus-app/ui/img/nexus.png"
       inkscape:export-xdpi="60"
       inkscape:export-ydpi="60" />
    <path
       inkscape:connector-curvature="0"
       style="color:#000000;fill:#ffffff;fill-opacity:1;fill-rule:nonzero;stroke:#000000;stroke-width:7.79999999999999982;marker:none;visibility:visible;display:inline;overflow:visible;enable-background:accumulate;stroke-opacity:1;stroke-miterlimit:4;stroke-dasharray:none"
       d="m 381.69191,-744.18645 c -16.97528,0 -30.65625,13.68097 -30.65625,30.65625 l 0,238.68752 c 0,16.9753 13.68097,30.6562 30.65625,30.6562 l 238.71875,0 c 16.97528,0 30.625,-13.6809 30.625,-30.6562 l 0,-238.68752 c 0,-16.97528 -13.64972,-30.65625 -30.625,-30.65625 l -238.71875,0 z m 34.03125,48.78125 19.71875,0 c 1.58662,2e-4 2.94245,0.0948 4.0625,0.28125 1.21329,0.0935 2.2537,0.37729 3.09375,0.84375 0.93328,0.37353 1.8162,0.9727 2.65625,1.8125 0.83995,0.74687 1.78578,1.78728 2.8125,3.09375 l 106.09375,135.5 c -0.28016,-3.2666 -0.50099,-6.48285 -0.6875,-9.65625 -0.18683,-3.17326 -0.28141,-6.10576 -0.28125,-8.8125 l 0,-123.0625 33.1875,0 0,202.43752 -19.3125,0 c -2.98684,0 -5.50934,-0.4729 -7.5625,-1.4063 -1.96016,-1.0266 -3.8835,-2.6979 -5.75,-5.0312 l -105.6875,-134.96877 c 0.55994,6.16014 0.81244,11.86721 0.8125,17.09375 l 0,124.31252 -33.15625,0 0,-202.43752 z"
       id="rect2985-7-4"
       inkscape:export-filename="/home/thibault/Documents/Informatique/github/nexus/nexus-app/ui/img/nexus-windows.png"
       inkscape:export-xdpi="14.619289"
       inkscape:export-ydpi="14.619289" />
  </g>
</svg>
